<?xml version="1.0" encoding="utf-8"?>
<!-- Generator: Adobe Illustrator 27.4.1, SVG Export Plug-In . SVG Version: 6.00 Build 0)  -->
<svg version="1.1" id="Layer_1" xmlns="http://www.w3.org/2000/svg" xmlns:xlink="http://www.w3.org/1999/xlink" x="0px" y="0px"
	 viewBox="0 0 401.4 401.4" style="enable-background:new 0 0 401.4 401.4;" xml:space="preserve">
<style type="text/css">
	.st0{opacity:0.92;fill:#043531;}
	.st1{fill:#F1FFED;}
	.st2{fill:#043531;}
	.st3{fill:#9B9B9B;}
	.st4{fill:#6E31F1;}
	.st5{fill:#040111;}
	.st6{fill:#6B2CF1;}
	.st7{fill:#8450F6;}
	.st8{opacity:0.1;fill:#2C2A40;}
	.st9{fill:#F9B587;}
	.st10{fill:#F39568;}
	.st11{fill:#2C2A40;}
	.st12{fill:#B0B1CA;}
	.st13{opacity:0.2;fill:#2C2A40;}
	.st14{fill:#4A1FC1;}
	.st15{fill:none;}
	.st16{fill:#171726;}
	.st17{fill:#5B5B6C;}
	.st18{fill:#FFFFFF;}
	.st19{fill:#A5C723;}
	.st20{fill:#00497B;}
	.st21{fill:#F2D651;}
</style>
<path class="st4" d="M356.9,401.4H44.4C19.9,401.4,0,381.5,0,356.9V44.4C0,19.9,19.9,0,44.4,0h312.5c24.5,0,44.4,19.9,44.4,44.4
	v312.5C401.4,381.5,381.5,401.4,356.9,401.4z"/>
<g>
	<g>
		<path class="st18" d="M217,308.8L217,308.8c-15.8,9.1-35.9,3.6-45-12.2L115.7,203c-9.1-15.8-3.6-35.9,12.2-45l0,0
			c15.8-9.1,35.9-3.6,45,12.2l56.4,93.7C238.3,279.6,232.8,299.8,217,308.8z"/>
		<path class="st18" d="M128.3,308.5L128.3,308.5c-15.8,9.1-35.9,3.6-45-12.2l0,0c-9.1-15.8-3.6-35.9,12.2-45l0,0
			c15.8-9.1,35.9-3.6,45,12.2l0,0C149.5,279.3,144.1,299.4,128.3,308.5z"/>
		<path class="st18" d="M305.8,308.5L305.8,308.5c-15.8,9.1-35.9,3.6-45-12.2l-96.8-158.8c-9.1-15.8-3.6-35.9,12.2-45l0,0
			c15.8-9.1,35.9-3.6,45,12.2L318,263.5C327.1,279.3,321.6,299.4,305.8,308.5z"/>
	</g>
</g>
</svg>
