<?xml version="1.0" encoding="UTF-8"?>
<svg id="Layer_2" data-name="Layer 2" xmlns="http://www.w3.org/2000/svg" viewBox="0 0 1137.49 225.05">
  <defs>
    <style>
      .cls-1 {
        fill: #6e31f1;
      }

      .cls-2 {
        fill: #040111;
      }
    </style>
  </defs>
  <g id="Layer_1-2" data-name="Layer 1">
    <g>
      <g>
        <path class="cls-1" d="m138.06,220.67h0c-15.77,9.06-35.9,3.62-44.96-12.16l-56.38-93.7c-9.06-15.77-3.62-35.9,12.16-44.96h0c15.77-9.06,35.9-3.62,44.96,12.16l56.38,93.7c9.06,15.77,3.62,35.9-12.16,44.96Z"/>
        <rect class="cls-1" x="0" y="158.85" width="65.86" height="65.86" rx="32.93" ry="32.93" transform="translate(-91.14 41.88) rotate(-29.87)"/>
        <path class="cls-1" d="m226.86,220.33h0c-15.77,9.06-35.9,3.62-44.96-12.16L85.1,49.34c-9.06-15.77-3.62-35.9,12.16-44.96h0c15.77-9.06,35.9-3.62,44.96,12.16l96.8,158.84c9.06,15.77,3.62,35.9-12.16,44.96Z"/>
      </g>
      <g>
        <path class="cls-2" d="m315.47,62.1c.04-.27.19-.56.43-.87.25-.31.55-.6.9-.87.36-.27.74-.48,1.14-.64.4-.16.78-.23,1.14-.23h17.13c.76,0,1.41.23,1.94.7s.94.88,1.2,1.24l1.67,3.81,35.13,90.62c.36.89.29,1.62-.2,2.17-.49.56-1.34.84-2.54.84h-19.21c-1.03,0-1.82-.19-2.38-.57-.56-.38-.99-1.01-1.3-1.91-.89-2.28-1.76-4.54-2.61-6.79s-1.7-4.52-2.54-6.79h-35.54c-.85,2.28-1.71,4.54-2.58,6.79s-1.73,4.52-2.58,6.79c-.58,1.65-1.72,2.48-3.41,2.48h-19.74c-.85,0-1.55-.22-2.11-.67-.56-.45-.66-1.12-.3-2.01l36.34-94.1Zm12.18,28.64c-.85,2.28-1.71,4.73-2.58,7.36-.87,2.63-1.73,5.29-2.58,7.96-.85,2.68-1.71,5.32-2.58,7.93-.87,2.61-1.73,5.05-2.58,7.33h20.55l-10.24-30.58Z"/>
        <path class="cls-2" d="m388.48,74.68c.58-.49,1.18-.8,1.81-.94.62-.13,1.23-.2,1.81-.2h10.11c.85,0,1.55.13,2.11.4.56.27,1.01.64,1.37,1.1.36.47.66,1,.9,1.61.24.6.48,1.26.7,1.97l2.81,8.1c1.25-1.61,2.51-3.25,3.78-4.92,1.27-1.67,2.78-3.19,4.52-4.55,1.74-1.36,3.81-2.49,6.22-3.38,2.41-.89,5.35-1.34,8.83-1.34,6.11,0,11.75,1.13,16.9,3.38,5.15,2.25,9.59,5.35,13.32,9.3,3.72,3.95,6.64,8.59,8.73,13.92,2.1,5.33,3.15,11.1,3.15,17.3s-1.05,11.91-3.15,17.27c-2.1,5.35-5.01,10-8.73,13.95-3.73,3.95-8.17,7.06-13.32,9.34-5.15,2.28-10.79,3.41-16.9,3.41-2.9,0-5.4-.35-7.5-1.04-2.1-.69-3.96-1.59-5.59-2.71-1.63-1.11-3.07-2.34-4.32-3.68-1.25-1.34-2.48-2.68-3.68-4.01v31.19c0,1.34-.4,2.48-1.21,3.41-.8.94-2.05,1.41-3.75,1.41h-15.33c-.54,0-1.12-.11-1.74-.33-.62-.22-1.21-.54-1.74-.94s-.98-.9-1.34-1.51c-.36-.6-.54-1.28-.54-2.04v-101.66c0-.89.17-1.63.5-2.21.33-.58.75-1.12,1.24-1.61Zm62.51,41.76c0-2.85-.47-5.57-1.41-8.13-.94-2.56-2.25-4.81-3.95-6.73-1.7-1.92-3.73-3.44-6.09-4.55-2.37-1.12-4.98-1.67-7.83-1.67s-5.48.52-8,1.57c-2.52,1.05-4.73,2.48-6.62,4.28-1.9,1.81-3.44,3.94-4.62,6.39-1.18,2.45-1.84,5.06-1.97,7.83v1c0,2.94.56,5.71,1.67,8.3,1.11,2.59,2.63,4.83,4.55,6.73,1.92,1.9,4.17,3.4,6.76,4.52,2.59,1.12,5.33,1.67,8.23,1.67s5.46-.56,7.83-1.67c2.36-1.12,4.39-2.62,6.09-4.52,1.7-1.9,3.01-4.14,3.95-6.73.94-2.59,1.41-5.35,1.41-8.3Z"/>
        <path class="cls-2" d="m488.87,60.62c0-1.38.46-2.42,1.37-3.11.91-.69,2.22-1.35,3.92-1.97l15.19-5.29c.22-.04.43-.07.64-.07h.57c1.65,0,2.75.48,3.31,1.44.56.96.84,2.22.84,3.78l-.07,18.4h9.17c1.43,0,2.59.42,3.48,1.27.89.85,1.34,2.12,1.34,3.81v12.92c0,1.87-.45,3.25-1.34,4.12s-2.05,1.31-3.48,1.31h-9.17l.07,56.48c0,1.7-.49,2.98-1.47,3.85-.98.87-2.34,1.3-4.08,1.3h-15.12c-3.44,0-5.15-1.72-5.15-5.15l-.07-56.48h-6.89c-3.44,0-5.15-1.81-5.15-5.42v-12.92c0-3.39,1.72-5.09,5.15-5.09h6.89l.07-13.18Z"/>
        <path class="cls-2" d="m541.13,45.23c0-1.87.4-3.2,1.21-3.98.8-.78,2.05-1.17,3.75-1.17h15.53c1.56,0,2.82.39,3.78,1.17.96.78,1.44,2.11,1.44,3.98v13.05c0,.54-.12,1.12-.37,1.74-.25.62-.59,1.23-1.04,1.81-.45.58-.99,1.06-1.64,1.44-.65.38-1.37.57-2.17.57h-15.53c-3.3,0-4.95-1.85-4.95-5.55v-13.05Zm0,33.86c0-1.43.4-2.65,1.21-3.68s2.05-1.54,3.75-1.54h15.33c.54,0,1.12.12,1.74.37.62.25,1.2.6,1.74,1.07.54.47.99,1.02,1.37,1.64.38.62.57,1.34.57,2.14v74.62c0,1.7-.47,2.98-1.41,3.85-.94.87-2.28,1.3-4.02,1.3h-15.33c-3.3,0-4.95-1.72-4.95-5.15v-74.62Z"/>
        <path class="cls-2" d="m584.63,75.07c.58-.49,1.19-.8,1.84-.94.65-.13,1.26-.2,1.84-.2h10.11c.8,0,1.5.15,2.08.44.58.29,1.07.68,1.47,1.17.4.49.72,1.05.97,1.67s.48,1.27.7,1.93l1.41,5.87c.67-1.38,1.63-2.8,2.88-4.27,1.25-1.47,2.83-2.8,4.75-4,1.92-1.2,4.21-2.19,6.86-2.97,2.65-.78,5.77-1.17,9.34-1.17,2.81,0,5.36.28,7.66.83s4.39,1.38,6.29,2.47,3.62,2.42,5.19,4,3.03,3.39,4.42,5.44c.85-1.38,2.11-2.82,3.78-4.34,1.67-1.51,3.67-2.89,5.99-4.14,2.32-1.25,4.91-2.27,7.76-3.07,2.86-.8,5.89-1.2,9.1-1.2,5.09,0,9.52.98,13.32,2.94,3.79,1.96,6.95,4.63,9.47,8.01,2.52,3.38,4.41,7.33,5.66,11.85,1.25,4.52,1.87,9.35,1.87,14.48v43.83c0,1.7-.37,2.98-1.1,3.85s-1.91,1.3-3.51,1.3h-15.46c-1.92,0-3.24-.32-3.95-.97-.71-.65-1.07-1.91-1.07-3.78v-44.24c0-1.92-.3-3.7-.9-5.35-.6-1.65-1.44-3.09-2.51-4.32-1.07-1.23-2.38-2.19-3.92-2.88-1.54-.69-3.25-1.04-5.12-1.04-1.7,0-3.3.33-4.82,1-1.52.67-2.86,1.6-4.02,2.78-1.16,1.18-2.09,2.61-2.78,4.28-.69,1.67-1.04,3.51-1.04,5.52v43.83c0,1.7-.37,2.98-1.1,3.85s-1.91,1.3-3.51,1.3h-15.46c-1.92,0-3.24-.32-3.95-.97-.71-.65-1.07-1.91-1.07-3.78v-44.24c0-1.92-.28-3.7-.84-5.35-.56-1.65-1.36-3.09-2.41-4.32-1.05-1.23-2.32-2.19-3.81-2.88-1.5-.69-3.18-1.04-5.05-1.04-1.61,0-3.18.32-4.72.97-1.54.65-2.92,1.56-4.15,2.74-1.23,1.18-2.25,2.6-3.08,4.25-.83,1.65-1.3,3.48-1.44,5.49v44.17c0,.76-.15,1.52-.43,2.28-.29.76-.73,1.34-1.31,1.74-.58.36-1.13.6-1.64.74s-1.1.2-1.77.2h-15.12c-1.92,0-3.3-.47-4.15-1.41-.85-.94-1.27-2.19-1.27-3.75v-74.84c0-.84.19-1.62.57-2.33.38-.71.9-1.27,1.57-1.67l-.4.2Z"/>
        <path class="cls-2" d="m796.71,148.7c-3.93,3.61-8.34,6.44-13.25,8.47-4.91,2.03-10.11,3.05-15.59,3.05-6.11,0-11.89-1.12-17.33-3.35-5.44-2.23-10.22-5.32-14.32-9.27-4.11-3.95-7.36-8.6-9.77-13.95s-3.61-11.18-3.61-17.47c0-3.93.48-7.73,1.44-11.41.96-3.68,2.32-7.13,4.08-10.34,1.76-3.21,3.9-6.17,6.42-8.87,2.52-2.7,5.34-5.01,8.47-6.93,3.12-1.92,6.51-3.41,10.17-4.48,3.66-1.07,7.52-1.61,11.58-1.61,3.7,0,7.29.49,10.78,1.47,3.48.98,6.75,2.37,9.8,4.15,3.06,1.79,5.86,3.93,8.4,6.42,2.54,2.5,4.73,5.23,6.56,8.2,1.83,2.97,3.25,6.14,4.25,9.5,1,3.37,1.51,6.84,1.51,10.41,0,2.32-.03,4.22-.1,5.69-.07,1.47-.41,2.64-1.04,3.51-.63.87-1.66,1.47-3.11,1.81-1.45.33-3.58.5-6.39.5h-48.19c.45,2.86,1.35,5.24,2.71,7.16,1.36,1.92,2.93,3.45,4.72,4.58,1.78,1.14,3.68,1.95,5.69,2.44,2.01.49,3.9.74,5.69.74,1.61,0,3.26-.17,4.95-.5,1.69-.33,3.33-.78,4.92-1.34,1.58-.56,3.03-1.21,4.35-1.94,1.32-.74,2.38-1.51,3.18-2.31.71-.58,1.33-1.01,1.84-1.3.51-.29,1.06-.44,1.64-.44s1.17.2,1.77.6,1.28.98,2.04,1.74l7.09,8.03c.49.58.8,1.1.94,1.57s.2.95.2,1.44c0,.89-.25,1.66-.74,2.31-.49.65-1.07,1.22-1.74,1.71Zm-32.19-55.75c-1.74,0-3.42.35-5.05,1.04-1.63.69-3.16,1.62-4.58,2.78s-2.71,2.48-3.85,3.95-2.06,2.97-2.78,4.48h34.2c-.94-1.74-1.95-3.35-3.04-4.82-1.09-1.47-2.34-2.77-3.75-3.88s-3.01-1.99-4.82-2.61c-1.81-.62-3.92-.94-6.32-.94Z"/>
        <path class="cls-2" d="m822.01,75.07c.58-.49,1.19-.8,1.84-.94.65-.13,1.26-.2,1.84-.2h10.11c.8,0,1.5.15,2.08.44.58.29,1.07.68,1.47,1.17.4.49.72,1.05.97,1.67s.48,1.27.7,1.93l1.41,5.87c.67-1.38,1.75-2.8,3.25-4.27,1.49-1.47,3.35-2.8,5.55-4,2.21-1.2,4.76-2.19,7.66-2.97,2.9-.78,6.13-1.17,9.7-1.17,5.09,0,9.63.98,13.62,2.94,3.99,1.96,7.38,4.63,10.17,8.01,2.79,3.38,4.91,7.33,6.36,11.85,1.45,4.52,2.17,9.35,2.17,14.48v43.83c0,1.7-.37,2.98-1.1,3.85s-1.91,1.3-3.51,1.3h-15.46c-1.92,0-3.24-.32-3.95-.97-.71-.65-1.07-1.91-1.07-3.78v-43.57c0-1.92-.44-3.74-1.31-5.45-.87-1.72-2.02-3.23-3.45-4.55-1.43-1.32-3.04-2.35-4.85-3.11-1.81-.76-3.65-1.14-5.52-1.14-1.61,0-3.25.36-4.92,1.07-1.67.71-3.21,1.71-4.62,2.98s-2.59,2.77-3.55,4.48c-.96,1.72-1.51,3.58-1.64,5.59v43.5c0,.76-.15,1.52-.43,2.28-.29.76-.73,1.34-1.31,1.74-.58.36-1.13.6-1.64.74s-1.1.2-1.77.2h-15.12c-1.92,0-3.3-.47-4.15-1.41-.85-.94-1.27-2.19-1.27-3.75v-74.84c0-.84.19-1.62.57-2.33.38-.71.9-1.27,1.57-1.67l-.4.2Z"/>
        <path class="cls-2" d="m922.13,60.62c0-1.38.46-2.42,1.37-3.11.91-.69,2.22-1.35,3.92-1.97l15.19-5.29c.22-.04.43-.07.64-.07h.57c1.65,0,2.75.48,3.31,1.44.56.96.84,2.22.84,3.78l-.07,18.4h9.17c1.43,0,2.59.42,3.48,1.27.89.85,1.34,2.12,1.34,3.81v12.92c0,1.87-.45,3.25-1.34,4.12s-2.05,1.31-3.48,1.31h-9.17l.07,56.48c0,1.7-.49,2.98-1.47,3.85-.98.87-2.34,1.3-4.08,1.3h-15.12c-3.44,0-5.15-1.72-5.15-5.15l-.07-56.48h-6.89c-3.44,0-5.15-1.81-5.15-5.42v-12.92c0-3.39,1.72-5.09,5.15-5.09h6.89l.07-13.18Z"/>
        <path class="cls-2" d="m969.31,116.44c0-4.1.52-8.05,1.57-11.85,1.05-3.79,2.52-7.31,4.42-10.54,1.9-3.23,4.17-6.18,6.83-8.83,2.65-2.65,5.61-4.92,8.87-6.79,3.26-1.87,6.77-3.32,10.54-4.35,3.77-1.03,7.71-1.54,11.81-1.54,6.07,0,11.77,1.13,17.1,3.38,5.33,2.25,9.97,5.35,13.92,9.3s7.07,8.59,9.37,13.92c2.3,5.33,3.45,11.1,3.45,17.3,0,4.11-.52,8.04-1.57,11.81-1.05,3.77-2.52,7.28-4.42,10.54-1.9,3.26-4.17,6.21-6.83,8.87-2.65,2.66-5.61,4.93-8.87,6.83-3.26,1.9-6.75,3.36-10.47,4.38-3.73,1.03-7.62,1.54-11.68,1.54s-8.04-.51-11.81-1.54c-3.77-1.03-7.28-2.49-10.54-4.38-3.26-1.9-6.21-4.17-8.87-6.83-2.65-2.65-4.93-5.61-6.83-8.87s-3.37-6.77-4.42-10.54c-1.05-3.77-1.57-7.71-1.57-11.81Zm24.43,0c0,2.94.46,5.7,1.37,8.26.91,2.57,2.21,4.79,3.88,6.66s3.7,3.36,6.09,4.45c2.39,1.09,5.08,1.64,8.06,1.64s5.52-.55,7.86-1.64c2.34-1.09,4.33-2.58,5.96-4.45,1.63-1.87,2.88-4.09,3.75-6.66.87-2.56,1.31-5.32,1.31-8.26s-.44-5.58-1.31-8.17c-.87-2.59-2.12-4.86-3.75-6.83-1.63-1.96-3.61-3.51-5.96-4.65-2.34-1.14-4.96-1.71-7.86-1.71s-5.68.57-8.06,1.71-4.42,2.69-6.09,4.65c-1.67,1.96-2.97,4.24-3.88,6.83-.92,2.59-1.37,5.31-1.37,8.17Z"/>
        <path class="cls-2" d="m1070.5,78.83c0-.85.16-1.58.47-2.21.31-.62.72-1.14,1.24-1.54s1.09-.7,1.74-.9c.65-.2,1.28-.3,1.91-.3h10.11c1.12,0,2.01.33,2.68,1,.67.67,1.24,1.52,1.71,2.54s.88,2.16,1.24,3.41c.36,1.25.78,2.45,1.27,3.61,1.34-1.47,2.67-2.92,3.98-4.35,1.32-1.43,2.73-2.7,4.25-3.81s3.18-2.02,4.99-2.71c1.81-.69,3.87-1.04,6.19-1.04s4.56.18,6.46.54c1.9.36,3.69.88,5.39,1.57,1.69.69,3.38,1.57,5.05,2.64,1.67,1.07,3.49,2.32,5.45,3.75,1.92,1.12,2.88,2.43,2.88,3.95,0,.98-.38,2.12-1.14,3.41l-6.09,10.37c-1.2,1.74-2.7,2.61-4.48,2.61-.89,0-1.9-.24-3.01-.74-1.92-1.87-3.87-3.27-5.86-4.18-1.99-.91-4.25-1.37-6.79-1.37-1.74,0-3.27.25-4.58.74-1.32.49-2.51,1.18-3.58,2.08-1.07.89-2.07,1.96-3.01,3.21-.94,1.25-1.87,2.63-2.81,4.15v48.45c0,1.7-.41,2.98-1.24,3.85-.83.87-2.2,1.3-4.12,1.3h-15.06c-3.48,0-5.22-1.72-5.22-5.15v-74.89Z"/>
      </g>
    </g>
  </g>
</svg>